<svg width="25" height="24" viewBox="0 0 25 24" fill="none" xmlns="http://www.w3.org/2000/svg">
<path fill-rule="evenodd" clip-rule="evenodd" d="M22.5263 7.80738H13.4319V1.43807C13.4319 0.696652 12.8219 0.0960388 12.0696 0.0960388C11.3172 0.0960388 10.7073 0.697138 10.7073 1.43807V7.80738H1.52182C0.665421 7.80738 0 8.50656 0 9.39752V10.3987C0 11.1935 0.476754 11.7898 1.14356 11.9888C1.80251 14.6763 3.42282 20.7587 3.70999 21.5618C3.99021 22.5552 4.93725 23.35 6.17884 23.35C7.41304 23.35 12.0696 23.35 12.0696 23.35C12.0696 23.35 16.6281 23.35 17.8623 23.35C19.1039 23.35 20.1494 22.5547 20.4297 21.5618C20.6262 20.7587 22.2391 14.6763 22.9961 11.9888C23.6629 11.7898 24.1396 11.194 24.1396 10.3987V9.39752C24.1392 8.50656 23.3822 7.80738 22.5263 7.80738ZM9.11562 19.8604C9.11562 20.4644 8.73598 20.8621 8.16859 20.8621C7.69183 20.8621 7.31311 20.4644 7.31311 19.8604V13.1842C7.31311 12.6909 7.69183 12.1903 8.16859 12.1903C8.73598 12.1903 9.11562 12.6909 9.11562 13.1842V19.8604ZM12.8256 19.8604C12.8256 20.4644 12.4473 20.8621 11.8786 20.8621C11.4018 20.8621 11.0231 20.4644 11.0231 19.8604V13.1842C11.0231 12.6909 11.4018 12.1903 11.8786 12.1903C12.4469 12.1903 12.8256 12.6909 12.8256 13.1842V19.8604ZM16.5356 19.8604C16.5356 20.4644 16.0588 20.8621 15.5816 20.8621C15.1049 20.8621 14.6277 20.4644 14.6277 19.8604V13.1842C14.6277 12.6909 15.1044 12.1903 15.5816 12.1903C16.0584 12.1903 16.5356 12.6909 16.5356 13.1842V19.8604Z" fill="#33344E"/>
</svg>
