<svg width="75" height="78" viewBox="0 0 75 78" fill="none" xmlns="http://www.w3.org/2000/svg">
<path d="M25.6824 15.6414H12.3938C11.164 15.6414 10.1672 16.6381 10.1672 17.8679C10.1672 19.0977 11.164 20.0945 12.3938 20.0945H25.6824C26.9117 20.0945 27.909 19.0977 27.909 17.8679C27.909 16.6381 26.9117 15.6414 25.6824 15.6414Z" fill="#FFD14B" stroke="#FFD14B"/>
<path d="M25.6824 24.5483H12.3938C11.164 24.5483 10.1672 25.5451 10.1672 26.7749C10.1672 28.0047 11.164 29.0015 12.3938 29.0015H25.6824C26.9117 29.0015 27.909 28.0047 27.909 26.7749C27.909 25.5451 26.9117 24.5483 25.6824 24.5483Z" fill="#FFD14B" stroke="#FFD14B"/>
<path d="M25.6824 33.4551H12.3938C11.164 33.4551 10.1672 34.4518 10.1672 35.6816C10.1672 36.9115 11.164 37.9082 12.3938 37.9082H25.6824C26.9117 37.9082 27.909 36.9115 27.909 35.6816C27.909 34.4518 26.9117 33.4551 25.6824 33.4551Z" fill="#FFD14B" stroke="#FFD14B"/>
<path d="M25.6824 42.3618H12.3938C11.164 42.3618 10.1672 43.3586 10.1672 44.5884C10.1672 45.8182 11.164 46.8149 12.3938 46.8149H25.6824C26.9117 46.8149 27.909 45.8182 27.909 44.5884C27.909 43.3586 26.9117 42.3618 25.6824 42.3618Z" fill="#FFD14B" stroke="#FFD14B"/>
<path d="M25.6824 51.4177H12.3938C11.164 51.4177 10.1672 52.415 10.1672 53.6443C10.1672 54.8741 11.164 55.8708 12.3938 55.8708H25.6824C26.9117 55.8708 27.909 54.8741 27.909 53.6443C27.909 52.415 26.9117 51.4177 25.6824 51.4177Z" fill="#FFD14B" stroke="#FFD14B"/>
<path d="M33.1599 20.0945H46.4485C47.6784 20.0945 48.6751 19.0977 48.6751 17.8679C48.6751 16.6381 47.6784 15.6414 46.4485 15.6414H33.1599C31.9307 15.6414 30.9333 16.6381 30.9333 17.8679C30.9333 19.0977 31.9307 20.0945 33.1599 20.0945Z" fill="#FFD14B" stroke="#FFD14B"/>
<path d="M33.1599 29.0015H46.4485C47.6784 29.0015 48.6751 28.0047 48.6751 26.7749C48.6751 25.5451 47.6784 24.5483 46.4485 24.5483H33.1599C31.9307 24.5483 30.9333 25.5451 30.9333 26.7749C30.9333 28.0047 31.9307 29.0015 33.1599 29.0015Z" fill="#FFD14B" stroke="#FFD14B"/>
<path d="M41.7867 35.6816C41.7867 34.4518 40.7899 33.4551 39.5601 33.4551H33.1599C31.9307 33.4551 30.9333 34.4518 30.9333 35.6816C30.9333 36.9115 31.9307 37.9082 33.1599 37.9082H39.5601C40.7899 37.9082 41.7867 36.9115 41.7867 35.6816Z" fill="#FFD14B" stroke="#FFD14B"/>
<path d="M62.8793 52.3576C61.9203 51.5881 60.5194 51.7418 59.7494 52.7008L54.0148 59.8502L50.4645 57.278C49.4689 56.5562 48.0762 56.7788 47.3549 57.7744C46.6335 58.7705 46.8562 60.1627 47.8518 60.884L53.1184 64.6999C53.5127 64.9852 53.9696 65.1238 54.4236 65.1238C55.0771 65.1238 55.723 64.8368 56.1614 64.29L63.2232 55.4875C63.9926 54.5285 63.839 53.127 62.8793 52.3576Z" fill="#FFD14B" stroke="#FFD14B"/>
<path d="M68.5072 45.5226C65.6068 42.5712 61.8802 40.7111 57.8423 40.1631V9.96713C57.8423 5.02289 53.8194 1 48.8752 1H9.96771C5.02289 1 1 5.02289 1 9.96713V61.5451C1 66.4899 5.02289 70.5128 9.96713 70.5128H41.2602C44.7815 74.6494 49.8446 77 55.3223 77C65.5187 77 73.8138 68.6991 73.8138 58.4958C73.8138 53.6112 71.9294 49.0039 68.5072 45.5226ZM5.45312 61.5451V9.96713C5.45312 7.47849 7.47849 5.45312 9.96771 5.45312H48.8752C51.3644 5.45312 53.3892 7.47849 53.3892 9.96713V40.0924C44.0979 41.0625 36.8308 48.9453 36.8308 58.4958C36.8308 61.1427 37.3828 63.7021 38.4416 66.0591H9.96771C7.47849 66.0591 5.45312 64.0343 5.45312 61.5451ZM55.3223 72.5469C50.8756 72.5469 46.7878 70.5053 44.106 66.9463C42.2598 64.4953 41.2834 61.5735 41.2834 58.4958C41.2834 50.748 47.5815 44.4446 55.3223 44.4446C55.3954 44.4446 55.469 44.4458 55.5421 44.447L55.5763 44.4475C59.2716 44.5131 62.7361 46.0032 65.3314 48.6438C67.9297 51.2873 69.3607 54.7866 69.3607 58.4958C69.3607 66.2435 63.0631 72.5469 55.3223 72.5469Z" fill="#269CED" stroke="#269CED"/>
</svg>
