<svg width="74" height="86" viewBox="0 0 74 86" fill="none" xmlns="http://www.w3.org/2000/svg">
<path d="M73.2666 23.8229L73.2669 23.83L73.2673 23.854C73.4537 33.6829 73.6871 45.9884 69.5583 57.1823C67.29 63.3333 63.8558 68.6844 59.3507 73.0844L59.1061 72.834L59.3507 73.0844C54.2229 78.0923 47.5173 82.0611 39.4313 84.889L39.4312 84.889C39.1523 84.9865 38.8624 85.0655 38.5694 85.1243L38.5691 85.1243C38.1561 85.2068 37.7387 85.2481 37.3217 85.2481C36.9047 85.2481 36.4879 85.2068 36.0744 85.1244L36.074 85.1243C35.7811 85.0656 35.4932 84.9872 35.2156 84.8904C27.1199 82.0676 20.4073 78.1007 15.2749 73.0922C10.7678 68.6934 7.33362 63.3435 5.06723 57.1937C0.95363 46.0327 1.18783 33.7497 1.37489 23.9393L1.37533 23.9163L1.37537 23.9141L1.37921 23.7626L1.37938 23.7557L1.37945 23.7557C1.41572 22.949 1.44056 22.1009 1.45458 21.1629L73.2666 23.8229ZM73.2666 23.8229L73.264 23.7577L73.2639 23.7556M73.2666 23.8229L73.2639 23.7556M73.2639 23.7556C73.2277 22.9548 73.2035 22.1068 73.1888 21.162C73.1176 16.3576 69.3 12.3859 64.496 12.1174C54.938 11.584 47.567 8.47268 41.2645 2.32965L41.2617 2.32692M73.2639 23.7556L41.2617 2.32692M41.2617 2.32692L41.2073 2.27513L41.2074 2.27509M41.2617 2.32692L41.2074 2.27509M41.2074 2.27509L41.2024 2.27054M41.2074 2.27509L41.2024 2.27054M41.2024 2.27054C38.9914 0.243265 35.6526 0.243315 33.441 2.2705L33.441 2.27045M41.2024 2.27054L33.441 2.27045M33.441 2.27045L33.4361 2.27514M33.441 2.27045L33.4361 2.27514M33.4361 2.27514L33.3817 2.32693L33.3817 2.32691M33.4361 2.27514L33.3817 2.32691M33.3817 2.32691L33.3789 2.32966M33.3817 2.32691L33.3789 2.32966M33.3789 2.32966C27.0764 8.47268 19.7054 11.584 10.1474 12.118M33.3789 2.32966L10.1474 12.118M10.4607 17.7263L10.4607 17.7263C8.58783 17.8306 7.09896 19.3785 7.07093 21.2454C7.07093 21.2454 7.07092 21.2455 7.07092 21.2456L6.72096 21.2403L10.4607 17.7263ZM10.4607 17.7263C15.9475 17.4201 20.7776 16.359 25.2208 14.4783C29.6541 12.6017 33.5904 9.95755 37.2505 6.40033C37.2814 6.37649 37.3062 6.37157 37.3222 6.37156C37.338 6.37154 37.3623 6.37631 37.3924 6.3998C41.0532 9.95727 44.9897 12.6016 49.4226 14.4783L49.5591 14.156M10.4607 17.7263L49.5591 14.156M49.5591 14.156L49.4226 14.4783C53.8658 16.359 58.6959 17.4201 64.1833 17.7263C66.0563 17.8306 67.5451 19.3785 67.5725 21.2461C67.5872 22.2319 67.6128 23.1252 67.6512 23.9732C67.8394 33.8967 68.042 45.0608 64.2881 55.2388C60.0167 66.82 51.3011 74.787 37.5793 79.5861C37.5428 79.5984 37.5059 79.6086 37.4692 79.616C37.3719 79.6352 37.2732 79.6352 37.1737 79.6155C37.1342 79.6075 37.0969 79.5973 37.064 79.5861C23.3274 74.7959 14.6063 66.8333 10.3381 55.2517C6.59459 45.0941 6.80279 33.9376 6.99161 24.0243C6.99161 24.0241 6.99162 24.0238 6.99162 24.0236L6.99278 23.9739L49.5591 14.156ZM10.1474 12.118C5.34399 12.3859 1.52574 16.3577 1.45458 21.1629L10.1474 12.118Z" fill="#269CED" stroke="#269CED" stroke-width="0.7"/>
<path d="M37.3205 20.5706C24.9524 20.5706 14.8907 30.6329 14.8907 43.0003C14.8907 55.3685 24.9524 65.4308 37.3205 65.4308C49.688 65.4308 59.7503 55.3685 59.7503 43.0003C59.7503 30.6329 49.688 20.5706 37.3205 20.5706ZM37.3205 60.149C27.8645 60.149 20.1718 52.4564 20.1718 43.0003C20.1718 33.5443 27.8645 25.8517 37.3205 25.8517C46.7758 25.8517 54.4685 33.5443 54.4685 43.0003C54.4685 52.4564 46.7758 60.149 37.3205 60.149Z" fill="#FFD14B"/>
<path d="M43.7669 36.0372L36.1765 43.6276C34.6148 45.1893 32.0828 45.1893 30.5212 43.6276C29.4898 42.5962 27.8178 42.5962 26.7864 43.6276C25.7557 44.6589 25.7557 46.331 26.7864 47.3616L31.4818 52.057C31.9975 52.5727 32.6732 52.8302 33.3488 52.8302C34.0245 52.8302 34.7002 52.5727 35.2159 52.057L47.5016 39.7713C48.5323 38.7399 48.5323 37.0679 47.5016 36.0372C46.4702 35.0052 44.7982 35.0052 43.7669 36.0372Z" fill="#FFD14B"/>
</svg>
