<svg width="93" height="65" viewBox="0 0 93 65" fill="none" xmlns="http://www.w3.org/2000/svg">
<path d="M69.5367 40.8418C63.1372 40.8418 57.9311 46.048 57.9311 52.4475C57.9311 58.8469 63.1372 64.0531 69.5367 64.0531C75.9373 64.0531 81.1424 58.8469 81.1424 52.4475C81.1424 46.048 75.9362 40.8418 69.5367 40.8418ZM69.5367 58.2503C66.3365 58.2503 63.7339 55.6476 63.7339 52.4475C63.7339 49.2473 66.3365 46.6446 69.5367 46.6446C72.7369 46.6446 75.3396 49.2473 75.3396 52.4475C75.3396 55.6478 72.7369 58.2503 69.5367 58.2503Z" fill="#269CED"/>
<path d="M29.8844 40.8418C23.485 40.8418 18.2788 46.048 18.2788 52.4475C18.2788 58.8469 23.485 64.0531 29.8844 64.0531C36.2839 64.0531 41.4901 58.8469 41.4901 52.4475C41.4901 46.048 36.2839 40.8418 29.8844 40.8418ZM29.8844 58.2503C26.6843 58.2503 24.0816 55.6476 24.0816 52.4475C24.0816 49.2473 26.6843 46.6446 29.8844 46.6446C33.0837 46.6446 35.6873 49.2473 35.6873 52.4475C35.6873 55.6478 33.0846 58.2503 29.8844 58.2503Z" fill="#269CED"/>
<path d="M77.3525 7.62291C76.8592 6.64321 75.8563 6.02515 74.7595 6.02515H59.4788V11.828H72.9703L80.8708 27.5419L86.0566 24.9344L77.3525 7.62291Z" fill="#269CED"/>
<path d="M60.833 49.6421H38.879V55.4449H60.833V49.6421Z" fill="#269CED"/>
<path d="M21.1803 49.6421H11.1222C9.51959 49.6421 8.22089 50.941 8.22089 52.5434C8.22089 54.146 9.51977 55.4447 11.1222 55.4447H21.1804C22.7831 55.4447 24.0818 54.1458 24.0818 52.5434C24.0818 50.9408 22.7829 49.6421 21.1803 49.6421Z" fill="#269CED"/>
<path d="M91.4621 31.9067L85.7551 24.5564C85.2068 23.8485 84.3606 23.4345 83.464 23.4345H62.3804V3.12471C62.3804 1.52209 61.0815 0.223389 59.479 0.223389H11.1222C9.51959 0.223389 8.22089 1.52227 8.22089 3.12471C8.22089 4.72714 9.51977 6.02603 11.1222 6.02603H56.5775V26.3358C56.5775 27.9384 57.8764 29.2371 59.4789 29.2371H82.0431L86.2685 34.6801V49.6437H78.2412C76.6386 49.6437 75.3399 50.9425 75.3399 52.545C75.3399 54.1476 76.6388 55.4463 78.2412 55.4463H89.1699C90.7725 55.4463 92.0712 54.1474 92.0714 52.545V33.6862C92.0714 33.0421 91.8566 32.4154 91.4621 31.9067Z" fill="#269CED"/>
<path d="M20.9868 34.9434H7.64027C6.03766 34.9434 4.73895 36.2423 4.73895 37.8447C4.73895 39.4473 6.03784 40.746 7.64027 40.746H20.9866C22.5893 40.746 23.888 39.4471 23.888 37.8447C23.8881 36.2423 22.5893 34.9434 20.9868 34.9434Z" fill="#FFD14B"/>
<path d="M27.66 23.5312H2.90132C1.29889 23.5312 0 24.8301 0 26.4327C0 28.0354 1.29889 29.3341 2.90132 29.3341H27.66C29.2626 29.3341 30.5613 28.0352 30.5613 26.4327C30.5613 24.8303 29.2626 23.5312 27.66 23.5312Z" fill="#FFD14B"/>
<path d="M32.399 12.1189H7.64027C6.03766 12.1189 4.73895 13.4178 4.73895 15.0202C4.73895 16.6228 6.03784 17.9216 7.64027 17.9216H32.399C34.0016 17.9216 35.3003 16.6227 35.3003 15.0202C35.3005 13.4178 34.0016 12.1189 32.399 12.1189Z" fill="#FFD14B"/>
</svg>
