<svg width="78" height="81" viewBox="0 0 78 81" fill="none" xmlns="http://www.w3.org/2000/svg">
<rect x="19.4084" y="27.1218" width="10.0219" height="6.01312" rx="3.00656" transform="rotate(-135 19.4084 27.1218)" fill="#FFD14B"/>
<rect x="60.5102" y="68.2234" width="10.0219" height="6.01312" rx="3.00656" transform="rotate(-135 60.5102 68.2234)" fill="#FFD14B"/>
<rect x="35.5355" y="17.9509" width="10.0219" height="6.01312" rx="3.00656" transform="rotate(-90 35.5355 17.9509)" fill="#FFD14B"/>
<rect x="35.5355" y="76.0776" width="10.0219" height="6.01312" rx="3.00656" transform="rotate(-90 35.5355 76.0776)" fill="#FFD14B"/>
<rect x="53.4237" y="22.8699" width="10.0219" height="6.01312" rx="3.00656" transform="rotate(-45 53.4237 22.8699)" fill="#FFD14B"/>
<rect x="12.3218" y="63.9717" width="10.0219" height="6.01312" rx="3.00656" transform="rotate(-45 12.3218 63.9717)" fill="#FFD14B"/>
<rect x="62.5945" y="38.9968" width="10.0219" height="6.01312" rx="3.00656" fill="#FFD14B"/>
<rect x="4.46765" y="38.9968" width="10.0219" height="6.01312" rx="3.00656" fill="#FFD14B"/>
<path fill-rule="evenodd" clip-rule="evenodd" d="M71.2048 27.4081C74.8443 24.6084 77.0841 20.3156 77.0841 15.6495C77.0841 7.43715 70.4582 0.811279 62.2459 0.811279C57.1131 0.811279 52.447 3.4243 49.7407 7.62379C46.1944 6.50393 42.4616 5.85067 38.542 5.85067C34.6225 5.85067 30.7963 6.50393 27.3434 7.71712C24.637 3.51762 19.9709 0.811279 14.8382 0.811279C6.62587 0.811279 0 7.43715 0 15.6495C0 20.3156 2.23973 24.7017 5.97262 27.5014C4.1995 31.7009 3.17295 36.367 3.17295 41.2198C3.17295 50.9253 7.09248 59.6975 13.4384 66.1368L17.6379 69.7763C23.5172 74.0692 30.703 76.5889 38.4487 76.5889C46.1945 76.5889 53.4736 74.0692 59.2595 69.7763L63.459 66.1368C69.8049 59.6975 73.7245 50.9253 73.7245 41.2198C74.0044 36.367 72.9779 31.7009 71.2048 27.4081ZM71.3914 15.6495C71.3914 10.5168 67.2853 6.41061 62.1525 6.41061C59.3529 6.41061 56.7398 7.71712 54.9667 9.86352C60.4727 12.7565 65.1388 17.1427 68.4984 22.3687C70.3649 20.6889 71.3914 18.2625 71.3914 15.6495ZM14.9315 6.41061C9.79882 6.41061 5.69265 10.5168 5.69265 15.6495C5.69265 18.2625 6.71919 20.6889 8.67896 22.462C11.9452 17.1427 16.6113 12.8498 22.1173 9.95685C20.4375 7.71712 17.7312 6.41061 14.9315 6.41061ZM8.77228 41.2198C8.77228 57.6445 22.1173 70.9895 38.542 70.9895C54.9667 70.9895 68.4051 57.6445 68.4051 41.2198C68.4051 24.7951 54.8734 11.45 38.542 11.45C22.2107 11.45 8.77228 24.7951 8.77228 41.2198Z" fill="#269CED"/>
<path d="M50.1628 39.4464H40.9685V24.9327C40.9685 23.3462 39.7553 22.1331 38.1688 22.1331C36.5823 22.1331 35.3691 23.3462 35.3691 24.9327V42.246C35.3691 43.8325 36.5823 45.0457 38.1688 45.0457H50.1628C51.7492 45.0457 52.9624 43.8325 52.9624 42.246C52.9624 40.6596 51.7492 39.4464 50.1628 39.4464Z" fill="#FFD14B"/>
<circle cx="39.0431" cy="41.5023" r="5.51202" fill="#269CED"/>
<circle cx="23.5514" cy="74.5745" r="5.51202" fill="#269CED"/>
<circle cx="53.617" cy="74.5745" r="5.51202" fill="#269CED"/>
</svg>
