<svg width="14" height="15" viewBox="0 0 14 15" fill="none" xmlns="http://www.w3.org/2000/svg">
<path d="M11.9366 2.66958L11.9366 2.66966C13.1155 3.75379 13.6996 5.0625 13.6996 6.59585C13.6996 7.80782 13.34 8.83868 12.626 9.69135L12.6259 9.69146C11.9116 10.547 11.0716 10.9665 10.1021 10.9665C9.45007 10.9665 8.96649 10.7185 8.63628 10.2219L8.56273 10.1113L8.47677 10.2126C8.02801 10.7413 7.49566 11.0013 6.87283 11.0013C6.17247 11.0013 5.5734 10.7092 5.06854 10.1086L5.0684 10.1084C4.5655 9.51267 4.31076 8.72148 4.31076 7.73024C4.31076 6.71742 4.59619 5.89727 5.16538 5.2634L5.16553 5.26323C5.73396 4.62732 6.41383 4.31202 7.20726 4.31202C7.70115 4.31202 8.15813 4.48194 8.57808 4.82459L8.69699 4.92162L8.73771 4.77364L8.82719 4.44847H10.3503L9.86638 8.40569L9.86637 8.40569L9.8662 8.40731C9.83657 8.68745 9.82016 8.93204 9.82016 9.14287C9.82016 9.28354 9.85258 9.4075 9.93527 9.49629C10.0192 9.58644 10.1384 9.62279 10.2733 9.62279C10.7558 9.62279 11.2019 9.32021 11.614 8.75806C12.0331 8.18904 12.2408 7.47675 12.2408 6.6333C12.2408 5.39625 11.7877 4.36581 10.8835 3.54921C9.98067 2.73397 8.87263 2.3275 7.56844 2.3275C6.15104 2.3275 4.95064 2.82474 3.97893 3.81283C3.0042 4.80394 2.51619 6.03898 2.51619 7.51353C2.51619 8.87326 2.97212 10.0609 3.87958 11.0692L3.87959 11.0692C4.79626 12.0874 6.08607 12.5899 7.73432 12.5899C8.77161 12.5899 9.83374 12.3563 10.9146 11.8915C11.2787 11.7366 11.6948 11.9059 11.842 12.2705L11.8421 12.2705C11.9844 12.6229 11.8144 13.0261 11.4621 13.1764L11.462 13.1765C10.2432 13.6985 9.00176 13.9577 7.737 13.9577C5.63719 13.9577 3.97937 13.3204 2.74675 12.0536C1.51535 10.7826 0.899561 9.26918 0.899561 7.5055C0.899561 5.66457 1.54711 4.13116 2.84044 2.89578C4.13485 1.65936 5.70176 1.04263 7.54436 1.04263C9.29829 1.04263 10.7609 1.58597 11.9366 2.66958ZM8.14098 8.81192L8.14116 8.81167C8.4565 8.38472 8.61545 7.89842 8.61823 7.35083V7.35033C8.61823 6.90693 8.48843 6.54307 8.22085 6.26676C7.95816 5.99551 7.65215 5.85642 7.30625 5.85642C6.90497 5.85642 6.57196 6.04767 6.31048 6.40578C6.04838 6.76475 5.92203 7.23153 5.92203 7.79712C5.92203 8.25672 6.01285 8.64722 6.20059 8.96596C6.38795 9.28862 6.64734 9.46494 6.97717 9.46494C7.4359 9.46494 7.82444 9.23771 8.14098 8.81192Z" fill="#269CED" stroke="#269CED" stroke-width="0.2"/>
</svg>
