<svg width="41" height="41" viewBox="0 0 41 41" fill="none" xmlns="http://www.w3.org/2000/svg">
<circle cx="20.5" cy="20.5" r="20.5" fill="url(#paint0_linear)"/>
<path d="M22.7221 22.6194C23.2712 22.0702 23.5458 21.4077 23.5458 20.6316C23.5458 19.8555 23.2712 19.1929 22.7221 18.6438C22.173 18.0947 21.5104 17.8202 20.7343 17.8202C19.9583 17.8202 19.2957 18.0947 18.7466 18.6438C18.1975 19.1929 17.9229 19.8555 17.9229 20.6316C17.9229 21.4077 18.1975 22.0702 18.7466 22.6194C19.2957 23.1685 19.9583 23.443 20.7343 23.443C21.5104 23.443 22.173 23.1685 22.7221 22.6194ZM23.7984 17.5676C24.6403 18.4095 25.0613 19.4309 25.0613 20.6316C25.0613 21.8323 24.6403 22.8536 23.7984 23.6956C22.9564 24.5376 21.935 24.9585 20.7343 24.9585C19.5336 24.9585 18.5123 24.5376 17.6703 23.6956C16.8284 22.8536 16.4074 21.8323 16.4074 20.6316C16.4074 19.4309 16.8284 18.4095 17.6703 17.5676C18.5123 16.7256 19.5336 16.3046 20.7343 16.3046C21.935 16.3046 22.9564 16.7256 23.7984 17.5676ZM25.9509 15.4151C26.1485 15.6127 26.2474 15.8507 26.2474 16.1289C26.2474 16.4071 26.1485 16.6451 25.9509 16.8427C25.7532 17.0404 25.5152 17.1393 25.237 17.1393C24.9588 17.1393 24.7209 17.0404 24.5232 16.8427C24.3255 16.6451 24.2267 16.4071 24.2267 16.1289C24.2267 15.8507 24.3255 15.6127 24.5232 15.4151C24.7209 15.2174 24.9588 15.1185 25.237 15.1185C25.5152 15.1185 25.7532 15.2174 25.9509 15.4151ZM21.569 13.7128C21.0638 13.7128 20.7856 13.7128 20.7343 13.7128C20.6831 13.7128 20.4012 13.7128 19.8887 13.7128C19.3835 13.7055 18.9992 13.7055 18.7356 13.7128C18.472 13.7128 18.1169 13.7238 17.6703 13.7458C17.231 13.7604 16.854 13.797 16.5392 13.8556C16.2317 13.9069 15.9717 13.9727 15.7594 14.0533C15.3934 14.1997 15.0712 14.412 14.793 14.6902C14.5148 14.9685 14.3025 15.2906 14.156 15.6567C14.0755 15.869 14.0059 16.1326 13.9474 16.4474C13.8961 16.7549 13.8595 17.1319 13.8375 17.5785C13.8229 18.0178 13.8119 18.3693 13.8046 18.6328C13.8046 18.8964 13.8046 19.2844 13.8046 19.7969C13.8119 20.3021 13.8156 20.5803 13.8156 20.6316C13.8156 20.6828 13.8119 20.9647 13.8046 21.4772C13.8046 21.9824 13.8046 22.3668 13.8046 22.6303C13.8119 22.8939 13.8229 23.249 13.8375 23.6956C13.8595 24.1349 13.8961 24.5119 13.9474 24.8268C14.0059 25.1343 14.0755 25.3942 14.156 25.6065C14.3025 25.9726 14.5148 26.2947 14.793 26.5729C15.0712 26.8511 15.3934 27.0635 15.7594 27.2099C15.9717 27.2904 16.2317 27.36 16.5392 27.4185C16.854 27.4698 17.231 27.5064 17.6703 27.5284C18.1169 27.543 18.472 27.554 18.7356 27.5613C18.9992 27.5613 19.3835 27.5613 19.8887 27.5613C20.4012 27.554 20.6831 27.5503 20.7343 27.5503C20.7856 27.5503 21.0638 27.554 21.569 27.5613C22.0815 27.5613 22.4695 27.5613 22.7331 27.5613C22.9967 27.554 23.3481 27.543 23.7874 27.5284C24.234 27.5064 24.611 27.4698 24.9185 27.4185C25.2334 27.36 25.4969 27.2904 25.7092 27.2099C26.0753 27.0635 26.3975 26.8511 26.6757 26.5729C26.9539 26.2947 27.1662 25.9726 27.3126 25.6065C27.3932 25.3942 27.4591 25.1343 27.5103 24.8268C27.5689 24.5119 27.6055 24.1349 27.6201 23.6956C27.6421 23.249 27.6531 22.8939 27.6531 22.6303C27.6604 22.3668 27.6604 21.9824 27.6531 21.4772C27.6531 20.9647 27.6531 20.6828 27.6531 20.6316C27.6531 20.5803 27.6531 20.3021 27.6531 19.7969C27.6604 19.2844 27.6604 18.8964 27.6531 18.6328C27.6531 18.3693 27.6421 18.0178 27.6201 17.5785C27.6055 17.1319 27.5689 16.7549 27.5103 16.4474C27.4591 16.1326 27.3932 15.869 27.3126 15.6567C27.1662 15.2906 26.9539 14.9685 26.6757 14.6902C26.3975 14.412 26.0753 14.1997 25.7092 14.0533C25.4969 13.9727 25.2334 13.9069 24.9185 13.8556C24.611 13.797 24.234 13.7604 23.7874 13.7458C23.3481 13.7238 22.9967 13.7128 22.7331 13.7128C22.4695 13.7055 22.0815 13.7055 21.569 13.7128ZM29.1137 17.1502C29.1503 17.7945 29.1686 18.955 29.1686 20.6316C29.1686 22.3082 29.1503 23.4686 29.1137 24.1129C29.0405 25.6358 28.5866 26.8145 27.7519 27.6492C26.9173 28.4838 25.7385 28.9377 24.2157 29.011C23.5714 29.0476 22.4109 29.0659 20.7343 29.0659C19.0577 29.0659 17.8973 29.0476 17.253 29.011C15.7301 28.9377 14.5514 28.4838 13.7167 27.6492C12.8821 26.8145 12.4282 25.6358 12.355 24.1129C12.3184 23.4686 12.3 22.3082 12.3 20.6316C12.3 18.955 12.3184 17.7945 12.355 17.1502C12.4282 15.6274 12.8821 14.4486 13.7167 13.614C14.5514 12.7794 15.7301 12.3254 17.253 12.2522C17.8973 12.2156 19.0577 12.1973 20.7343 12.1973C22.4109 12.1973 23.5714 12.2156 24.2157 12.2522C25.7385 12.3254 26.9173 12.7794 27.7519 13.614C28.5866 14.4486 29.0405 15.6274 29.1137 17.1502Z" fill="white"/>
<defs>
<linearGradient id="paint0_linear" x1="31.98" y1="4.1" x2="7.38" y2="34.85" gradientUnits="userSpaceOnUse">
<stop stop-color="#532BD6"/>
<stop offset="0.317708" stop-color="#D61B58"/>
<stop offset="0.505208" stop-color="#F14136"/>
<stop offset="0.776042" stop-color="#E67767"/>
<stop offset="1" stop-color="#F8D876"/>
</linearGradient>
</defs>
</svg>
