<svg width="41" height="41" viewBox="0 0 41 41" fill="none" xmlns="http://www.w3.org/2000/svg">
<circle cx="20.5" cy="20.5" r="20.5" fill="#F9931D"/>
<path d="M23.6738 19.2918C22.7001 20.2655 21.525 20.7524 20.1486 20.7524C18.7721 20.7524 17.597 20.2655 16.6233 19.2918C15.6495 18.318 15.1627 17.1466 15.1627 15.7775C15.1627 14.401 15.6495 13.226 16.6233 12.2522C17.597 11.2785 18.7721 10.7916 20.1486 10.7916C21.525 10.7916 22.7001 11.2785 23.6738 12.2522C24.6476 13.226 25.1345 14.401 25.1345 15.7775C25.1345 17.1466 24.6476 18.318 23.6738 19.2918ZM21.8728 14.0423C21.3969 13.5591 20.8221 13.3175 20.1486 13.3175C19.475 13.3175 18.8966 13.5591 18.4134 14.0423C17.9375 14.5182 17.6995 15.0966 17.6995 15.7775C17.6995 16.451 17.9375 17.0294 18.4134 17.5127C18.8966 17.9885 19.475 18.2265 20.1486 18.2265C20.8221 18.2265 21.3969 17.9885 21.8728 17.5127C22.356 17.0294 22.5976 16.451 22.5976 15.7775C22.5976 15.0966 22.356 14.5182 21.8728 14.0423ZM25.8922 21.3564C25.9874 21.5541 26.0423 21.7371 26.057 21.9055C26.0716 22.0666 26.0533 22.213 26.002 22.3448C25.9581 22.4766 25.8629 22.6194 25.7165 22.7731C25.5701 22.9195 25.4127 23.055 25.2443 23.1794C25.0832 23.2966 24.8599 23.4467 24.5744 23.6297C23.7324 24.1642 22.5793 24.5083 21.115 24.662L21.9167 25.4527L24.8489 28.385C25.0686 28.6119 25.1784 28.8828 25.1784 29.1977C25.1784 29.5125 25.0686 29.7797 24.8489 29.9994L24.7171 30.1421C24.4902 30.3618 24.2193 30.4716 23.9045 30.4716C23.5896 30.4716 23.3187 30.3618 23.0918 30.1421C22.6012 29.6443 21.6238 28.6632 20.1595 27.1989L17.2273 30.1421C17.0004 30.3618 16.7295 30.4716 16.4146 30.4716C16.0998 30.4716 15.8326 30.3618 15.6129 30.1421L15.4812 29.9994C15.2542 29.7797 15.1407 29.5125 15.1407 29.1977C15.1407 28.8828 15.2542 28.6119 15.4812 28.385L18.4134 25.4527L19.2041 24.662C17.7179 24.5083 16.5574 24.1642 15.7228 23.6297C15.4372 23.4467 15.2103 23.2966 15.0419 23.1794C14.8808 23.055 14.727 22.9195 14.5806 22.7731C14.4342 22.6194 14.3354 22.4766 14.2841 22.3448C14.2402 22.213 14.2255 22.0666 14.2402 21.9055C14.2548 21.7371 14.3097 21.5541 14.4049 21.3564C14.4781 21.21 14.5806 21.0819 14.7124 20.972C14.8442 20.8622 14.9979 20.7817 15.1737 20.7304C15.3494 20.6792 15.5544 20.6865 15.7887 20.7524C16.0229 20.8183 16.2609 20.9464 16.5025 21.1368C16.5391 21.166 16.594 21.2063 16.6672 21.2576C16.7404 21.3088 16.8979 21.4003 17.1395 21.5321C17.3811 21.6566 17.6337 21.7664 17.8972 21.8616C18.1608 21.9568 18.4976 22.0446 18.9076 22.1252C19.3176 22.2057 19.7312 22.246 20.1486 22.246C20.8148 22.246 21.4518 22.1544 22.0595 21.9714C22.6671 21.781 23.1064 21.5944 23.3773 21.4113L23.7946 21.1368C24.0362 20.9464 24.2742 20.8183 24.5085 20.7524C24.7428 20.6865 24.9478 20.6792 25.1235 20.7304C25.2992 20.7817 25.4529 20.8622 25.5847 20.972C25.7165 21.0819 25.819 21.21 25.8922 21.3564Z" fill="white"/>
</svg>
