<svg width="21" height="22" viewBox="0 0 21 22" fill="none" xmlns="http://www.w3.org/2000/svg">
<path d="M12.785 13.2262C13.8881 12.1231 14.4396 10.7987 14.4396 9.25276C14.4396 7.70686 13.8881 6.38658 12.785 5.29191C11.6904 4.18889 10.3701 3.63738 8.82418 3.63738C7.27827 3.63738 5.95381 4.18889 4.85079 5.29191C3.75612 6.38658 3.20879 7.70686 3.20879 9.25276C3.20879 10.7987 3.75612 12.1231 4.85079 13.2262C5.95381 14.3208 7.27827 14.8682 8.82418 14.8682C10.3701 14.8682 11.6904 14.3208 12.785 13.2262ZM20.8571 19.6813C20.8571 20.1159 20.6984 20.4919 20.3808 20.8094C20.0633 21.127 19.6873 21.2857 19.2527 21.2857C18.8015 21.2857 18.4255 21.127 18.1247 20.8094L13.8254 16.5227C12.3296 17.5589 10.6625 18.0769 8.82418 18.0769C7.62924 18.0769 6.48443 17.8471 5.38977 17.3876C4.30346 16.9196 3.36338 16.2929 2.56954 15.5074C1.78405 14.7136 1.15734 13.7735 0.689389 12.6872C0.229796 11.5925 0 10.4477 0 9.25276C0 8.05782 0.229796 6.9172 0.689389 5.83089C1.15734 4.73622 1.78405 3.79615 2.56954 3.01066C3.36338 2.21682 4.30346 1.5901 5.38977 1.13051C6.48443 0.662563 7.62924 0.428589 8.82418 0.428589C10.0191 0.428589 11.1597 0.662563 12.2461 1.13051C13.3407 1.5901 14.2808 2.21682 15.0663 3.01066C15.8601 3.79615 16.4868 4.73622 16.9464 5.83089C17.4144 6.9172 17.6484 8.05782 17.6484 9.25276C17.6484 11.0911 17.1303 12.7582 16.0941 14.254L20.3934 18.5532C20.7026 18.8624 20.8571 19.2385 20.8571 19.6813Z" fill="#269CED"/>
</svg>
