<svg width="41" height="41" viewBox="0 0 41 41" fill="none" xmlns="http://www.w3.org/2000/svg">
<circle cx="20.5" cy="20.5" r="20.5" fill="#4D75A3"/>
<path d="M30.0728 16.5023C30.2412 16.9709 29.6921 18.0471 28.4255 19.731C28.2498 19.9653 28.0118 20.2765 27.7116 20.6645C27.4188 21.0379 27.2174 21.3015 27.1076 21.4552C26.9978 21.609 26.8843 21.792 26.7672 22.0044C26.6573 22.2094 26.6134 22.3631 26.6354 22.4656C26.6647 22.5608 26.7123 22.6852 26.7781 22.839C26.8514 22.9927 26.9722 23.1502 27.1406 23.3112C27.3089 23.4723 27.5176 23.6663 27.7665 23.8933C27.7958 23.9079 27.8141 23.9226 27.8214 23.9372C28.8538 24.8963 29.553 25.7053 29.919 26.3643C29.941 26.4009 29.963 26.4485 29.9849 26.507C30.0142 26.5583 30.0398 26.6535 30.0618 26.7926C30.0911 26.9317 30.0911 27.0561 30.0618 27.166C30.0325 27.2758 29.941 27.3783 29.7873 27.4735C29.6335 27.5613 29.4175 27.6052 29.1393 27.6052L26.3279 27.6492C26.1522 27.6858 25.9472 27.6675 25.7129 27.5943C25.4786 27.521 25.2882 27.4405 25.1418 27.3527L24.9222 27.2209C24.7025 27.0671 24.4463 26.8328 24.1534 26.518C23.8606 26.2032 23.608 25.9213 23.3956 25.6724C23.1906 25.4161 22.9673 25.2038 22.7257 25.0354C22.4914 24.8597 22.2864 24.8011 22.1107 24.8597C22.0888 24.867 22.0595 24.8817 22.0229 24.9036C21.9863 24.9183 21.924 24.9695 21.8362 25.0574C21.7483 25.1452 21.6678 25.2551 21.5946 25.3869C21.5287 25.5113 21.4664 25.7017 21.4079 25.9579C21.3566 26.2069 21.3347 26.4887 21.342 26.8035C21.342 26.9134 21.3273 27.0159 21.2981 27.111C21.2761 27.1989 21.2505 27.2648 21.2212 27.3087L21.1773 27.3636C21.0455 27.5027 20.8514 27.5833 20.5952 27.6052H19.3323C18.8124 27.6345 18.278 27.576 17.7289 27.4295C17.1798 27.2758 16.6965 27.0818 16.2792 26.8475C15.8692 26.6059 15.4922 26.3643 15.1481 26.1227C14.8113 25.8737 14.555 25.6614 14.3793 25.4857L14.1048 25.2221C14.0315 25.1489 13.929 25.0391 13.7973 24.8927C13.6728 24.7462 13.4129 24.4131 13.0175 23.8933C12.6222 23.3735 12.2341 22.8207 11.8534 22.235C11.4727 21.6493 11.0224 20.8769 10.5026 19.9177C9.99011 18.9586 9.51422 17.9629 9.07493 16.9306C9.031 16.8135 9.00904 16.7146 9.00904 16.6341C9.00904 16.5535 9.02002 16.495 9.04198 16.4584L9.08591 16.3925C9.19573 16.2534 9.40439 16.1838 9.71189 16.1838L12.721 16.1619C12.8089 16.1765 12.8931 16.2021 12.9736 16.2387C13.0541 16.268 13.1127 16.2973 13.1493 16.3266L13.2042 16.3595C13.3214 16.4401 13.4092 16.5572 13.4678 16.711C13.6142 17.077 13.7826 17.4577 13.973 17.8531C14.1633 18.2411 14.3134 18.5377 14.4232 18.7427L14.5989 19.0611C14.8113 19.5004 15.0163 19.8811 15.2139 20.2033C15.4116 20.5254 15.5873 20.778 15.7411 20.961C15.9022 21.1368 16.0559 21.2759 16.2023 21.3784C16.3488 21.4809 16.4732 21.5321 16.5757 21.5321C16.6782 21.5321 16.7771 21.5138 16.8723 21.4772C16.8869 21.4699 16.9052 21.4516 16.9272 21.4223C16.9491 21.393 16.9931 21.3125 17.0589 21.1807C17.1248 21.0489 17.1724 20.8769 17.2017 20.6645C17.2383 20.4522 17.2749 20.1557 17.3115 19.775C17.3481 19.3943 17.3481 18.9367 17.3115 18.4022C17.2969 18.1094 17.2639 17.8421 17.2127 17.6005C17.1614 17.3589 17.1102 17.1905 17.0589 17.0953L16.9931 16.9635C16.81 16.7146 16.4989 16.5572 16.0596 16.4913C15.9644 16.4767 15.9827 16.3888 16.1145 16.2277C16.2316 16.0886 16.3707 15.9788 16.5318 15.8983C16.9198 15.7079 17.7948 15.6201 19.1565 15.6347C19.7569 15.642 20.2511 15.6896 20.6391 15.7775C20.7856 15.8141 20.9064 15.8653 21.0015 15.9312C21.104 15.9898 21.1809 16.0777 21.2322 16.1948C21.2834 16.3046 21.32 16.4218 21.342 16.5462C21.3713 16.6634 21.3859 16.8281 21.3859 17.0404C21.3859 17.2527 21.3823 17.4541 21.3749 17.6444C21.3676 17.8348 21.3566 18.0947 21.342 18.4242C21.3347 18.7463 21.331 19.0465 21.331 19.3247C21.331 19.4052 21.3273 19.559 21.32 19.786C21.3127 20.0129 21.309 20.1886 21.309 20.3131C21.3164 20.4376 21.331 20.5877 21.353 20.7634C21.3749 20.9318 21.4152 21.0745 21.4738 21.1917C21.5397 21.3015 21.6239 21.3894 21.7264 21.4552C21.7849 21.4699 21.8472 21.4845 21.9131 21.4992C21.9789 21.5138 22.0741 21.4735 22.1986 21.3784C22.3231 21.2832 22.4622 21.1587 22.6159 21.005C22.7697 20.8439 22.96 20.5986 23.187 20.2692C23.4139 19.9324 23.6629 19.537 23.9338 19.0831C24.3731 18.3217 24.7648 17.498 25.1089 16.6121C25.1381 16.5389 25.1748 16.4767 25.2187 16.4254C25.2626 16.3669 25.3029 16.3266 25.3395 16.3046L25.3834 16.2717C25.3981 16.2644 25.4164 16.257 25.4383 16.2497C25.4603 16.2351 25.5079 16.2241 25.5811 16.2168C25.6543 16.2021 25.7275 16.1985 25.8007 16.2058L28.9636 16.1838C29.2491 16.1472 29.4834 16.1582 29.6664 16.2168C29.8495 16.268 29.963 16.3266 30.0069 16.3925L30.0728 16.5023Z" fill="white"/>
</svg>
